# xmcd CD database file
#
# Track frame offsets:
#	150
#	53702
#	101557
#	137197
#	180612
#	213325
#
# Disc length: 2952 seconds
#
# Revision: 0
# Processed by: cddbd v1.5.1PL2 Copyright (c) Steve Scherf et al.
# Submitted via: CDex 1.51
#
DISCID=510b8606
DTITLE=The Phil Woods Quintet - Bop Stew
DYEAR=1987
DGENRE=Jazz
TTITLE0=HUK2E
TTITLE1=Dreamsville
TTITLE2=Bop Stew
TTITLE3=Poor Butterfly
TTITLE4=Yes, There Is A C.O.T.A.
TTITLE5=How's Your Mama
EXTD=YEAR: 1987
EXTT0=
EXTT1=
EXTT2=
EXTT3=
EXTT4=
EXTT5=
PLAYORDER=
